<?xml version="1.0" standalone="no"?>
<!DOCTYPE svg PUBLIC "-//W3C//DTD SVG 20010904//EN"
 "http://www.w3.org/TR/2001/REC-SVG-20010904/DTD/svg10.dtd">
<svg version="1.0" xmlns="http://www.w3.org/2000/svg"
 width="260.000000pt" height="260.000000pt" viewBox="0 0 260.000000 260.000000"
 preserveAspectRatio="xMidYMid meet">
<metadata>
Created by potrace 1.14, written by Peter Selinger 2001-2017
</metadata>
<g transform="translate(0.000000,260.000000) scale(0.100000,-0.100000)"
fill="#000000" stroke="none">
<path d="M1530 1873 c-57 -21 -181 -93 -340 -198 -102 -67 -241 -158 -310
-201 -69 -43 -154 -100 -189 -126 -35 -27 -71 -48 -80 -49 -9 -1 -74 -3 -146
-4 -193 -6 -242 -12 -280 -35 -41 -26 -61 -73 -39 -95 9 -8 21 -15 27 -16 7 0
21 -3 32 -5 11 -3 61 -6 111 -6 90 -2 93 -1 128 30 33 29 56 40 56 28 0 -3
-24 -21 -53 -40 -63 -42 -198 -156 -244 -206 -36 -39 -42 -67 -16 -77 24 -9
52 10 253 173 l182 149 175 0 c96 0 177 -3 180 -7 2 -5 -18 -32 -45 -60 -27
-29 -62 -68 -78 -87 -16 -19 -34 -39 -40 -45 -5 -6 -22 -28 -36 -50 -27 -39
-27 -57 0 -89 14 -16 17 -16 40 -1 14 9 36 29 50 43 13 14 42 46 65 71 23 25
75 84 115 132 l72 87 58 -5 c48 -5 61 -2 85 16 15 12 27 29 27 39 0 21 -38 44
-74 44 -14 0 -26 2 -26 6 0 3 17 24 38 47 20 22 86 96 147 165 60 68 112 126
115 129 4 3 29 35 57 73 62 82 75 133 43 159 -23 18 -34 20 -60 11z m-122
-175 c-23 -29 -52 -64 -63 -77 -11 -13 -27 -31 -35 -40 -9 -9 -54 -61 -100
-116 -47 -55 -101 -117 -120 -138 l-34 -38 -151 5 c-82 2 -152 5 -155 5 -12 3
677 450 693 451 5 0 -11 -24 -35 -52z"/>
<path d="M2385 1643 c-72 -18 -348 -269 -487 -443 -54 -67 -95 -104 -178 -163
-115 -80 -210 -133 -245 -137 -37 -4 -65 0 -65 9 0 6 24 38 53 72 28 34 75 89
104 123 77 90 82 140 14 138 -25 0 -91 -41 -121 -72 -3 -3 -34 -28 -70 -55
-36 -28 -67 -52 -70 -55 -3 -3 -39 -31 -82 -63 -51 -39 -94 -63 -130 -72 -97
-26 -132 -105 -37 -84 68 16 141 60 259 158 89 74 97 79 53 28 -44 -51 -83
-121 -83 -150 0 -9 9 -26 20 -37 18 -18 31 -20 93 -18 61 3 85 10 149 43 43
21 87 48 100 59 13 12 44 38 70 59 l47 38 -20 -45 c-11 -25 -22 -63 -25 -85
-5 -34 -2 -44 20 -66 32 -32 66 -32 105 0 32 28 32 55 0 55 -26 0 -24 16 7 75
44 82 73 113 178 192 127 96 149 116 274 240 115 115 160 190 142 238 -10 25
-28 29 -75 18z m-36 -132 c-39 -65 -138 -163 -309 -305 -23 -20 -24 -20 -10
-1 8 11 20 26 27 33 7 7 29 34 50 60 106 131 247 271 260 258 3 -3 -5 -23 -18
-45z"/>
<path d="M1712 1474 c-49 -25 -94 -81 -86 -107 11 -40 31 -47 82 -32 74 22
121 89 94 132 -13 20 -56 24 -90 7z"/>
</g>
</svg>
